<svg width="185" height="83" viewBox="0 0 185 83" fill="none" xmlns="http://www.w3.org/2000/svg">
<g clip-path="url(#clip0_233_133)">
<path d="M72.6719 25.7284V12.4955H76.546V22.5714H81.1217V12.4955H84.992V22.5714H86.7613V28.8286H83.4934V25.7284H72.6719Z" fill="#595A5C"/>
<path d="M94.4265 26.0611C93.5005 26.0682 92.5791 25.9304 91.6963 25.6528C90.8673 25.3953 90.1075 24.9555 89.4737 24.3663C88.8399 23.7772 88.3484 23.0538 88.0358 22.2501C87.6667 21.2911 87.488 20.2705 87.5095 19.2443V18.7452C87.4883 17.7644 87.6632 16.789 88.0243 15.8756C88.3407 15.1011 88.8219 14.4034 89.4352 13.8302C90.0419 13.2737 90.7623 12.8533 91.5476 12.5977C92.3943 12.3169 93.2821 12.1777 94.1748 12.1856C96.3864 12.1856 98.0502 12.7426 99.1662 13.8566C100.282 14.9707 100.84 16.6003 100.84 18.7452V20.1177H91.4828C91.4855 20.5679 91.5801 21.0129 91.7611 21.4258C91.9139 21.7626 92.136 22.0639 92.4132 22.3105C92.6824 22.5455 92.9998 22.7197 93.3436 22.821C93.6941 22.9296 94.0593 22.9844 94.4265 22.9835C95.0325 23.0133 95.6367 22.8979 96.1882 22.647C96.5724 22.4607 96.8689 22.1342 97.0156 21.7358H100.588C100.474 22.4041 100.235 23.0453 99.8831 23.6262C99.5531 24.1611 99.1172 24.6241 98.6018 24.9874C98.0458 25.369 97.4223 25.6434 96.7639 25.7965C95.9986 25.9788 95.2136 26.0677 94.4265 26.0611ZM91.5095 17.6072H97.0614C97.0732 17.2183 97.0004 16.8315 96.8478 16.473C96.7145 16.1872 96.5114 15.939 96.2568 15.7508C95.993 15.5653 95.693 15.4365 95.376 15.3728C95.0288 15.299 94.6747 15.2622 94.3197 15.2631C93.9764 15.2622 93.6344 15.3041 93.3016 15.3879C92.9834 15.466 92.6839 15.606 92.4208 15.8C92.1577 15.994 91.9426 16.2449 91.7916 16.5335C91.6179 16.866 91.5215 17.2329 91.5095 17.6072Z" fill="#595A5C"/>
<path d="M102.586 25.7284V12.4955H106.46V17.4106H111.551V12.4955H115.425V25.7284H111.551V20.5638H106.46V25.7284H102.586Z" fill="#595A5C"/>
<path d="M121.009 25.7284V15.6525H116.91V12.5107H128.982V15.6525H124.895V25.7284H121.009Z" fill="#595A5C"/>
<path d="M130.48 30.7266V12.522H134.046V14.3179C134.5 13.6456 135.119 13.0986 135.845 12.7277C136.57 12.3568 137.378 12.1741 138.194 12.1969C140.074 12.1969 141.496 12.7451 142.473 13.8416C143.449 14.938 143.929 16.5789 143.929 18.7566V19.2556C143.945 20.2542 143.81 21.2495 143.529 22.2084C143.304 22.9915 142.914 23.7183 142.385 24.3408C141.889 24.9022 141.269 25.3422 140.574 25.6263C139.823 25.926 139.019 26.0738 138.21 26.0611C137.462 26.0629 136.725 25.8879 136.059 25.5507C135.377 25.2062 134.793 24.6964 134.362 24.0686V30.7266H130.48ZM137.272 22.8966C137.642 22.8998 138.009 22.8183 138.343 22.6584C138.675 22.4948 138.966 22.2612 139.197 21.974C139.458 21.6363 139.65 21.2509 139.762 20.8398C139.903 20.3237 139.971 19.7905 139.964 19.2556V18.7566C139.972 18.2464 139.909 17.7374 139.777 17.2443C139.67 16.8594 139.48 16.502 139.22 16.197C138.987 15.9269 138.695 15.7134 138.366 15.5731C138.02 15.4288 137.647 15.3567 137.272 15.3614C136.882 15.3589 136.496 15.4215 136.128 15.5467C135.777 15.6651 135.459 15.8617 135.197 16.1213C134.929 16.3931 134.719 16.7159 134.58 17.0703C134.422 17.4885 134.346 17.9323 134.355 18.3785V19.6262C134.348 20.0969 134.424 20.5651 134.58 21.0099C134.716 21.3907 134.925 21.7413 135.197 22.0421C135.454 22.3234 135.772 22.542 136.128 22.681C136.492 22.8233 136.88 22.8964 137.272 22.8966Z" fill="#595A5C"/>
<path d="M72.6719 54.7044V36.4998H76.2448V38.2957C76.6486 37.7002 77.1814 37.2016 77.8043 36.8363C78.5866 36.3773 79.4848 36.1491 80.3934 36.1785C82.2745 36.1785 83.7006 36.7267 84.6717 37.8231C85.6428 38.9196 86.1283 40.5579 86.1283 42.7382V43.2373C86.1442 44.2371 86.0093 45.2336 85.7279 46.1938C85.5013 46.9762 85.1116 47.7026 84.584 48.3262C84.0874 48.8865 83.4678 49.3263 82.7728 49.6117C82.0213 49.9095 81.2179 50.0573 80.4087 50.0465C79.6611 50.0483 78.9238 49.8733 78.2581 49.5361C77.5748 49.1911 76.9909 48.6799 76.5612 48.0502V54.7082L72.6719 54.7044ZM79.463 46.8744C79.8334 46.8771 80.1996 46.797 80.5345 46.64C80.8663 46.475 81.1578 46.2401 81.3886 45.9519C81.6513 45.615 81.8433 45.2293 81.953 44.8176C82.0949 44.3016 82.163 43.7683 82.1551 43.2335V42.742C82.1655 42.2316 82.1026 41.7224 81.9682 41.2296C81.8619 40.8445 81.6719 40.487 81.4115 40.1823C81.1766 39.9145 80.885 39.7015 80.5574 39.5585C80.2111 39.4141 79.8386 39.3421 79.463 39.3468C79.0737 39.3456 78.6869 39.4095 78.3191 39.5358C77.9694 39.6539 77.6512 39.8491 77.3887 40.1067C77.121 40.3783 76.9121 40.7012 76.7748 41.0557C76.6143 41.4731 76.5366 41.9173 76.546 42.3639V43.6116C76.5381 44.0827 76.6156 44.5513 76.7748 44.9953C76.9088 45.3773 77.1174 45.7293 77.3887 46.0312C77.6448 46.3118 77.9634 46.5293 78.3191 46.6664C78.6834 46.8078 79.0718 46.8785 79.463 46.8744Z" fill="#595A5C"/>
<path d="M92.0301 50.0427C91.3735 50.0537 90.7205 49.9434 90.1045 49.7175C89.5745 49.5219 89.0905 49.2209 88.6822 48.8328C88.2967 48.4592 87.9963 48.008 87.8014 47.5096C87.5977 46.981 87.4955 46.4194 87.5001 45.8536C87.5001 44.5416 87.9082 43.5322 88.7203 42.8289C89.5325 42.1257 90.7642 41.7816 92.4076 41.7816H96.2207V41.2296C96.2207 40.4319 96.0262 39.8761 95.6411 39.5699C95.1814 39.2401 94.6213 39.0772 94.0549 39.1086C93.5667 39.0733 93.0786 39.177 92.6478 39.4073C92.4941 39.5146 92.3682 39.6566 92.2807 39.8216C92.1932 39.9866 92.1465 40.1698 92.1445 40.3563H88.2551C88.2842 39.7771 88.439 39.211 88.7089 38.6965C88.9856 38.1772 89.3766 37.7263 89.8528 37.377C90.4026 36.9764 91.0198 36.6755 91.6755 36.4885C92.4853 36.2618 93.3241 36.1536 94.1654 36.1671C94.9802 36.1584 95.7927 36.2537 96.5829 36.4507C97.2634 36.6227 97.8982 36.9387 98.4437 37.377C98.9754 37.819 99.3892 38.3838 99.6487 39.0217C99.9539 39.8047 100.099 40.6401 100.076 41.4792V46.3413C100.076 47.037 100.095 47.6495 100.129 48.175C100.163 48.7005 100.209 49.2071 100.278 49.6873H96.6058C96.5715 49.4075 96.5448 49.158 96.5181 48.9311C96.4895 48.6662 96.4768 48.3998 96.48 48.1334C96.2719 48.4126 96.0313 48.6664 95.7631 48.8896C95.4745 49.133 95.1522 49.3342 94.806 49.4869C94.4117 49.6598 93.9983 49.7867 93.5744 49.865C93.0667 49.974 92.5495 50.0336 92.0301 50.0427ZM93.2846 47.3508C93.6739 47.3518 94.0606 47.2879 94.4285 47.1617C94.7688 47.0468 95.0843 46.8699 95.3589 46.64C95.6207 46.4119 95.83 46.1309 95.9728 45.8158C96.129 45.4753 96.2071 45.1047 96.2016 44.7307V44.1825H93.1512C92.9194 44.1637 92.6863 44.1941 92.4673 44.2716C92.2484 44.3492 92.0486 44.4722 91.8814 44.6324C91.6135 44.916 91.466 45.2911 91.4696 45.6797C91.4479 45.9152 91.4808 46.1525 91.5659 46.3734C91.6509 46.5944 91.7858 46.7931 91.9603 46.9544C92.1347 47.1157 92.3441 47.2352 92.5723 47.304C92.8005 47.3727 93.0416 47.3886 93.277 47.3508H93.2846Z" fill="#595A5C"/>
<path d="M107.69 50.0427C106.75 50.0567 105.812 49.9525 104.898 49.7327C104.188 49.5626 103.524 49.2428 102.95 48.795C102.448 48.3924 102.055 47.8728 101.806 47.2827C101.542 46.6315 101.398 45.9388 101.379 45.2373H105.352C105.382 45.4645 105.428 45.6894 105.489 45.9103C105.548 46.1122 105.661 46.2941 105.817 46.4358C106.008 46.6012 106.237 46.7169 106.485 46.7723C106.86 46.8539 107.244 46.8906 107.629 46.8819C108.483 46.8819 109.089 46.7458 109.451 46.4698C109.609 46.3734 109.74 46.2404 109.835 46.0823C109.929 45.9242 109.983 45.7458 109.993 45.5624C110.005 45.3722 109.964 45.1823 109.875 45.0131C109.787 44.844 109.653 44.7019 109.489 44.6021C108.981 44.3565 108.417 44.2482 107.854 44.2883H106.119V41.7476H107.644C108.144 41.7777 108.644 41.6732 109.089 41.4451C109.247 41.3499 109.376 41.2137 109.462 41.0511C109.548 40.8886 109.588 40.7059 109.577 40.5226C109.575 40.3534 109.53 40.1873 109.447 40.0395C109.363 39.8916 109.244 39.7666 109.1 39.6757C108.663 39.4117 108.154 39.29 107.644 39.3279C107.106 39.2736 106.567 39.4074 106.119 39.706C105.805 40.0043 105.616 40.4097 105.592 40.8402H101.634C101.666 40.1341 101.832 39.4402 102.122 38.7948C102.393 38.2214 102.798 37.7208 103.305 37.3354C103.861 36.9242 104.493 36.6238 105.165 36.4507C105.983 36.2402 106.826 36.1397 107.671 36.152C109.547 36.152 110.979 36.4961 111.968 37.1842C112.44 37.4959 112.825 37.9219 113.085 38.4221C113.346 38.9223 113.473 39.48 113.455 40.0425C113.464 40.6377 113.307 41.2239 113.001 41.7363C112.647 42.2761 112.104 42.6668 111.476 42.8327C112.448 43.052 113.108 43.415 113.451 43.9329C113.802 44.4744 113.982 45.1079 113.966 45.7515C113.971 46.3477 113.824 46.9356 113.539 47.4604C113.239 47.9975 112.817 48.4583 112.307 48.8064C111.705 49.2108 111.036 49.51 110.332 49.6911C109.471 49.9262 108.582 50.0445 107.69 50.0427Z" fill="#595A5C"/>
<path d="M115.695 49.7176V36.4847H122.837C123.601 36.4689 124.363 36.558 125.102 36.7494C125.655 36.891 126.173 37.1403 126.627 37.4829C127.003 37.7777 127.3 38.1594 127.493 38.5945C127.68 39.032 127.775 39.5029 127.771 39.9782C127.772 40.6046 127.583 41.2169 127.23 41.7363C126.855 42.2854 126.284 42.6732 125.632 42.8214C126.386 42.9776 127.067 43.3763 127.569 43.9556C128.033 44.5082 128.283 45.2066 128.275 45.9254C128.296 46.445 128.198 46.9625 127.986 47.4384C127.775 47.9142 127.456 48.3356 127.055 48.6703C126.239 49.3509 125.002 49.6911 123.344 49.6911L115.695 49.7176ZM119.566 41.6645H122.159C122.83 41.6645 123.302 41.5586 123.527 41.3506C123.651 41.2494 123.75 41.1214 123.816 40.9766C123.882 40.8318 123.914 40.674 123.909 40.5151C123.917 40.3557 123.887 40.1966 123.821 40.0511C123.755 39.9057 123.654 39.7782 123.527 39.6795C123.115 39.4501 122.641 39.35 122.17 39.3922H119.554L119.566 41.6645ZM119.566 46.8253H122.383C122.91 46.861 123.436 46.7579 123.909 46.5266C124.07 46.4339 124.203 46.2987 124.292 46.1359C124.381 45.973 124.422 45.7889 124.412 45.604C124.421 45.4178 124.38 45.2325 124.291 45.068C124.202 44.9035 124.07 44.766 123.909 44.6702C123.439 44.4293 122.911 44.3208 122.383 44.3564H119.554L119.566 46.8253Z" fill="#595A5C"/>
<path d="M129.988 49.7176V36.4847H133.763V44.4661L139.422 36.4847H142.816V49.7176H139.044V41.7401L133.386 49.7176H129.988Z" fill="#595A5C"/>
<path d="M148.412 49.7176V39.6417H144.312V36.4999H156.385V39.6417H152.286V49.7176H148.412Z" fill="#595A5C"/>
<path d="M157.883 49.7176V36.4847H161.658V44.4661L167.316 36.4847H170.71V49.7176H166.939V41.7401L161.28 49.7176H157.883Z" fill="#595A5C"/>
<path d="M172.176 49.7176L175.569 44.829C174.693 44.5848 173.921 44.0645 173.369 43.3469C172.907 42.6801 172.666 41.8873 172.679 41.0784C172.675 40.4601 172.79 39.8465 173.018 39.2712C173.249 38.711 173.614 38.2152 174.082 37.827C174.608 37.3874 175.219 37.0604 175.878 36.8666C176.723 36.6162 177.601 36.4976 178.483 36.515H185.022V49.7479H181.129V45.2865H179.222L176.405 49.7479L172.176 49.7176ZM178.338 42.4131H181.129V39.6418H178.338C177.888 39.6265 177.445 39.7493 177.068 39.9934C176.897 40.1127 176.759 40.2738 176.669 40.4613C176.579 40.6488 176.539 40.8562 176.553 41.0634C176.54 41.2641 176.58 41.4647 176.671 41.6447C176.761 41.8248 176.898 41.9778 177.068 42.0879C177.451 42.3146 177.892 42.4275 178.338 42.4131Z" fill="#595A5C"/>
<path d="M78.3732 74.0206C77.4332 74.0364 76.4951 73.9322 75.582 73.7106C74.8724 73.5417 74.2078 73.2232 73.6335 72.7767C73.1315 72.3745 72.7384 71.8548 72.4896 71.2644C72.2251 70.6134 72.0804 69.9206 72.0625 69.219H76.0357C76.0619 69.448 76.1079 69.6744 76.173 69.8957C76.2318 70.0963 76.3453 70.2768 76.5009 70.4175C76.6899 70.5834 76.9181 70.6991 77.1644 70.754C77.5396 70.8384 77.9238 70.8765 78.3083 70.8674C79.1625 70.8674 79.7688 70.7313 80.131 70.4553C80.2878 70.357 80.4187 70.2231 80.5129 70.0646C80.607 69.9062 80.6618 69.7277 80.6725 69.5441C80.6839 69.3539 80.6431 69.1642 80.5545 68.9951C80.4659 68.826 80.3327 68.6839 80.1691 68.5838C79.6609 68.3396 79.0966 68.2327 78.5333 68.2738H76.7984V65.7293H78.3236C78.8249 65.7608 79.3255 65.6576 79.7726 65.4306C79.9311 65.3357 80.0604 65.1995 80.1465 65.0369C80.2325 64.8743 80.272 64.6914 80.2607 64.5081C80.2586 64.3387 80.2139 64.1726 80.1307 64.0247C80.0475 63.8768 79.9283 63.7518 79.784 63.6612C79.3463 63.3953 78.8355 63.2723 78.3236 63.3096C77.7833 63.2596 77.2428 63.4016 76.7984 63.7103C76.4827 64.0075 76.2943 64.4136 76.2721 64.8446H72.2951C72.3304 64.1385 72.4971 63.4451 72.787 62.7992C73.0582 62.2263 73.4634 61.726 73.969 61.3398C74.5259 60.9286 75.1578 60.6281 75.8298 60.4551C76.6463 60.2445 77.4877 60.1441 78.3312 60.1564C80.2098 60.1564 81.6435 60.5017 82.6324 61.1923C83.1052 61.5029 83.4901 61.9282 83.7504 62.4278C84.0107 62.9274 84.1377 63.4848 84.1195 64.0468C84.1286 64.6433 83.9715 65.2307 83.6657 65.7444C83.3102 66.283 82.7674 66.6733 82.1405 66.8408C83.1116 67.0551 83.77 67.4206 84.1157 67.9373C84.467 68.4801 84.6463 69.1148 84.6305 69.7596C84.6357 70.3547 84.4888 70.9413 84.2034 71.4648C83.9046 72.0038 83.4828 72.466 82.9718 72.8145C82.3686 73.2182 81.7008 73.5174 80.9966 73.6992C80.1405 73.922 79.2582 74.0301 78.3732 74.0206Z" fill="#595A5C"/>
<path d="M90.6122 74.0206C89.9622 74.0305 89.3158 73.9216 88.7056 73.6992C88.1752 73.5045 87.691 73.2033 87.2834 72.8145C86.8887 72.4379 86.5804 71.9814 86.3797 71.4761C86.1739 70.9468 86.0717 70.3835 86.0784 69.8163C86.0784 68.5056 86.4851 67.4974 87.2986 66.7917C88.1121 66.0859 89.3399 65.7368 90.9821 65.7444H94.7952V65.1962C94.7952 64.3984 94.6045 63.8464 94.2194 63.5364C93.7595 63.2072 93.1996 63.0444 92.6332 63.0751C92.1447 63.041 91.6565 63.1459 91.2261 63.3776C91.0703 63.482 90.9429 63.6229 90.8551 63.7877C90.7673 63.9526 90.7219 64.1364 90.7228 64.3228H86.8411C86.8677 63.7397 87.0248 63.1699 87.3012 62.6546C87.5775 62.1393 87.9661 61.6914 88.4387 61.3435C88.9874 60.9419 89.6049 60.6422 90.2614 60.4588C91.071 60.2308 91.9098 60.1212 92.7514 60.1337C93.5652 60.1239 94.3767 60.2205 95.165 60.421C95.8449 60.5926 96.4795 60.9072 97.0258 61.3435C97.5599 61.784 97.9753 62.3492 98.2346 62.9882C98.5398 63.7712 98.685 64.6066 98.6617 65.4457V70.3418C98.6617 71.0413 98.6617 71.6538 98.7112 72.1755C98.7608 72.6973 98.7951 73.2115 98.8637 73.7106H95.1917C95.1574 73.427 95.1269 73.1775 95.104 72.9544C95.0756 72.6894 95.0629 72.4231 95.0659 72.1566C94.8547 72.4332 94.6144 72.6867 94.349 72.9128C94.0579 73.1529 93.7361 73.3537 93.392 73.5102C92.9982 73.6848 92.5847 73.8117 92.1603 73.8882C91.6498 73.9822 91.1313 74.0265 90.6122 74.0206ZM91.8705 71.3286C92.2597 71.3316 92.6465 71.269 93.0145 71.1434C93.3557 71.0289 93.6716 70.8505 93.9449 70.6178C94.2074 70.3897 94.418 70.1087 94.5626 69.7936C94.7157 69.4536 94.7924 69.0846 94.7875 68.7123V68.1603H91.7371C91.5054 68.1423 91.2725 68.173 91.0536 68.2505C90.8348 68.3281 90.635 68.4507 90.4673 68.6103C90.198 68.8933 90.0492 69.2684 90.0517 69.6575C90.0306 69.8932 90.0641 70.1306 90.1496 70.3515C90.2352 70.5724 90.3704 70.771 90.5451 70.9322C90.7199 71.0934 90.9294 71.2129 91.1578 71.2816C91.3861 71.3503 91.6273 71.3664 91.8629 71.3286H91.8705Z" fill="#595A5C"/>
<path d="M100.656 73.6992V60.4664H104.53V65.4798H105.537L109.259 60.4664H113.484L108.58 66.6745L113.735 73.6841H109.159L105.537 68.4515H104.53V73.7144L100.656 73.6992Z" fill="#595A5C"/>
<path d="M118.235 79.0113C118.102 79.0113 117.976 79.0113 117.854 79.0113C117.725 79.0031 117.598 78.9828 117.473 78.9508V75.7597C117.598 75.7899 117.726 75.8102 117.854 75.8202C117.974 75.8202 118.101 75.8202 118.235 75.8202C118.454 75.8274 118.672 75.7901 118.876 75.7106C119.067 75.6238 119.236 75.4944 119.368 75.3325C119.537 75.1304 119.681 74.9081 119.795 74.6709C119.956 74.3461 120.098 74.013 120.222 73.6728L114.602 60.4815H118.876L122.197 69.2832L125.339 60.4815H129.187L124.081 73.7144C123.7 74.6444 123.36 75.446 123.025 76.1189C122.733 76.728 122.347 77.2881 121.881 77.7787C121.462 78.2044 120.951 78.5291 120.386 78.7277C119.69 78.9393 118.963 79.0351 118.235 79.0113Z" fill="#595A5C"/>
<path d="M130.406 73.6992V60.4664H142.989V73.6992H139.108V63.6234H134.277V73.6992H130.406Z" fill="#595A5C"/>
<path d="M151.489 74.0206C150.591 74.0269 149.699 73.889 148.846 73.6123C148.045 73.347 147.308 72.9181 146.684 72.3532C146.044 71.7581 145.546 71.0299 145.224 70.2209C144.852 69.2561 144.673 68.2288 144.697 67.1963V66.6972C144.677 65.7239 144.856 64.7566 145.224 63.854C145.553 63.0739 146.051 62.3755 146.684 61.8086C147.315 61.2553 148.049 60.8312 148.846 60.5609C150.561 59.9972 152.413 59.9972 154.127 60.5609C154.925 60.8303 155.662 61.2544 156.293 61.8086C156.925 62.3757 157.422 63.0741 157.75 63.854C158.121 64.7558 158.301 65.7235 158.28 66.6972V67.1963C158.301 68.2142 158.121 69.2263 157.75 70.1755C157.431 70.9853 156.933 71.7139 156.293 72.3079C155.669 72.877 154.931 73.3099 154.127 73.5783C153.279 73.8723 152.387 74.0218 151.489 74.0206ZM151.489 70.8296C151.904 70.8375 152.316 70.7522 152.693 70.5801C153.045 70.418 153.348 70.1693 153.574 69.8579C153.823 69.5158 154.007 69.1314 154.116 68.7237C154.249 68.2306 154.313 67.7217 154.306 67.2114V66.7123C154.311 66.2481 154.247 65.7857 154.116 65.3399C154.006 64.9554 153.823 64.5958 153.574 64.2812C153.339 63.9871 153.037 63.7515 152.693 63.5932C152.316 63.421 151.904 63.3357 151.489 63.3436C151.072 63.336 150.659 63.4213 150.28 63.5932C149.937 63.7535 149.636 63.9887 149.399 64.2812C149.153 64.5969 148.971 64.9563 148.861 65.3399C148.731 65.7857 148.666 66.2481 148.671 66.7123V67.2114C148.665 67.7217 148.729 68.2304 148.861 68.7237C148.971 69.1304 149.153 69.5144 149.399 69.8579C149.627 70.1654 149.93 70.4101 150.28 70.5687C150.66 70.7391 151.072 70.8281 151.489 70.8296Z" fill="#595A5C"/>
<path d="M159.977 73.6992V60.4664H163.851V65.4798H164.857L168.579 60.4664H172.804L167.9 66.6745L173.055 73.6841H168.48L164.869 68.4515H163.862V73.7144L159.977 73.6992Z" fill="#595A5C"/>
<path d="M44.8968 0.0189209H27.6388C25.1231 0.0248738 22.7117 1.01662 20.9303 2.77796C19.149 4.53929 18.142 6.9274 18.1289 9.42178V24.1934H23.5321V9.42178C23.5341 8.34446 23.9666 7.31182 24.7349 6.55004C25.5032 5.78826 26.5446 5.35941 27.6311 5.35742H44.8968C45.4365 5.35592 45.9711 5.45991 46.4702 5.66341C46.9692 5.8669 47.423 6.16589 47.8054 6.54335C48.1879 6.92081 48.4916 7.36932 48.6991 7.86321C48.9066 8.35711 49.014 8.88673 49.015 9.42178V46.7156C49.014 47.7933 48.5818 48.8265 47.8133 49.5885C47.0448 50.3505 46.0027 50.779 44.9159 50.78H27.6388C26.5519 50.779 25.5099 50.3505 24.7414 49.5885C23.9729 48.8265 23.5407 47.7933 23.5397 46.7156V34.8855H18.1289V46.7156C18.137 49.212 19.1407 51.6038 20.9209 53.369C22.7012 55.1342 25.1135 56.1294 27.6311 56.1374H44.8968C47.4145 56.1294 49.8268 55.1342 51.6071 53.369C53.3873 51.6038 54.391 49.212 54.3991 46.7156V9.42178C54.386 6.92871 53.3801 4.54171 51.6004 2.78059C49.8206 1.01947 47.4112 0.0268652 44.8968 0.0189209Z" fill="#00AE4D"/>
<path d="M30.8632 58.8104V73.5555C30.8612 74.6329 30.4287 75.6655 29.6604 76.4273C28.8921 77.1891 27.8506 77.6179 26.7641 77.6199H9.50606C8.41922 77.6189 7.37719 77.1904 6.60868 76.4284C5.84018 75.6664 5.40799 74.6332 5.40698 73.5555V36.2655C5.40799 35.1878 5.84018 34.1546 6.60868 33.3926C7.37719 32.6306 8.41922 32.2021 9.50606 32.2011H26.7641C27.8506 32.2031 28.8921 32.6319 29.6604 33.3937C30.4287 34.1555 30.8612 35.1881 30.8632 36.2655V48.0994H36.2664V36.2655C36.2533 33.7724 35.2474 31.3854 33.4676 29.6243C31.6879 27.8632 29.2785 26.8706 26.7641 26.8626H9.50606C6.98706 26.8696 4.57324 27.8649 2.79204 29.631C1.01083 31.3971 0.00704337 33.7905 0 36.2882V73.5783C0.00704337 76.0759 1.01083 78.4692 2.79204 80.2354C4.57324 82.0015 6.98706 82.9968 9.50606 83.0038H26.7641C29.2825 82.9958 31.6953 82.0001 33.4757 80.2341C35.2561 78.4681 36.2593 76.0753 36.2664 73.5783V58.8331L30.8632 58.8104Z" fill="#F6345B"/>
</g>
<defs>
<clipPath id="clip0_233_133">
<rect width="185" height="83" fill="white"/>
</clipPath>
</defs>
</svg>
